<svg width="40" height="26" viewBox="0 0 40 26" fill="none" xmlns="http://www.w3.org/2000/svg">
<g clip-path="url(#clip0_4431_3981)">
<path d="M36.4179 0.196167H3.58218C3.44543 0.196167 3.30843 0.196167 3.17192 0.196964C3.05652 0.197786 2.9414 0.199067 2.82627 0.202209C2.57518 0.208999 2.32195 0.223813 2.074 0.268375C1.82209 0.313711 1.58768 0.387659 1.359 0.504092C1.13418 0.618421 0.928359 0.767961 0.749992 0.946404C0.571547 1.12485 0.422007 1.33033 0.307701 1.55539C0.191245 1.78407 0.117248 2.01856 0.0722267 2.27066C0.0274252 2.51868 0.0125122 2.77186 0.00574573 3.02268C0.00265247 3.13781 0.00132575 3.25294 0.000574187 3.36804C-0.000223295 3.50485 4.25324e-05 3.64155 4.25324e-05 3.7786V22.2216C4.25324e-05 22.3587 -0.000223295 22.4952 0.000574187 22.6322C0.00132575 22.7473 0.00265247 22.8625 0.00574573 22.9776C0.0125122 23.2282 0.0274252 23.4814 0.0722267 23.7293C0.117248 23.9815 0.191245 24.2159 0.307701 24.4446C0.422007 24.6697 0.571547 24.8754 0.749992 25.0536C0.928359 25.2323 1.13418 25.3818 1.359 25.4959C1.58768 25.6126 1.82209 25.6866 2.074 25.7319C2.32195 25.7762 2.57518 25.7913 2.82627 25.7981C2.9414 25.8007 3.05652 25.8022 3.17192 25.8027C3.30843 25.8038 3.44543 25.8038 3.58218 25.8038H36.4179C36.5544 25.8038 36.6914 25.8038 36.8279 25.8027C36.943 25.8022 37.0581 25.8007 37.1738 25.7981C37.4243 25.7913 37.6775 25.7762 37.9261 25.7319C38.1776 25.6866 38.4121 25.6126 38.6408 25.4959C38.8659 25.3818 39.0711 25.2323 39.2498 25.0536C39.428 24.8754 39.5775 24.6697 39.6921 24.4446C39.8088 24.2159 39.8827 23.9815 39.9275 23.7293C39.9724 23.4814 39.9869 23.2282 39.9937 22.9776C39.9969 22.8625 39.9984 22.7473 39.9989 22.6322C40 22.4952 40 22.3587 40 22.2216V3.7786C40 3.64155 40 3.50485 39.9989 3.36804C39.9984 3.25294 39.9969 3.13781 39.9937 3.02268C39.9869 2.77186 39.9724 2.51868 39.9275 2.27066C39.8827 2.01856 39.8088 1.78407 39.6921 1.55539C39.5775 1.33033 39.428 1.12485 39.2498 0.946404C39.0711 0.767961 38.8659 0.618421 38.6408 0.504092C38.4121 0.387659 38.1776 0.313711 37.9261 0.268375C37.6775 0.223813 37.4243 0.208999 37.1738 0.202209C37.0581 0.199067 36.943 0.197786 36.8279 0.196964C36.6914 0.196167 36.5544 0.196167 36.4179 0.196167Z" fill="white"/>
<path d="M36.4178 1.04968L36.8217 1.05046C36.9312 1.05123 37.0406 1.05241 37.1506 1.05541C37.342 1.06058 37.5659 1.07095 37.7746 1.10836C37.956 1.14103 38.1082 1.19072 38.2542 1.26505C38.3983 1.3383 38.5304 1.43429 38.6457 1.54944C38.7615 1.66536 38.8576 1.79765 38.9318 1.94339C39.0057 2.08827 39.0551 2.23969 39.0876 2.42244C39.1249 2.62887 39.1352 2.85337 39.1405 3.04595C39.1434 3.15465 39.1449 3.26335 39.1454 3.37463C39.1464 3.50921 39.1464 3.64372 39.1464 3.77857V22.2216C39.1464 22.3565 39.1464 22.4907 39.1454 22.6282C39.1449 22.7369 39.1434 22.8456 39.1404 22.9544C39.1352 23.1467 39.1249 23.3711 39.0871 23.58C39.0551 23.7602 39.0058 23.9117 38.9314 24.0573C38.8574 24.2027 38.7615 24.3348 38.6462 24.45C38.5302 24.566 38.3986 24.6617 38.2527 24.7356C38.1078 24.8096 37.9559 24.8592 37.7763 24.8916C37.5634 24.9295 37.3301 24.9399 37.1544 24.9447C37.0439 24.9472 36.9339 24.9487 36.8212 24.9492C36.6869 24.9503 36.5521 24.9502 36.4178 24.9502H3.58213C3.58035 24.9502 3.57861 24.9502 3.57679 24.9502C3.44403 24.9502 3.31099 24.9502 3.17581 24.9492C3.06558 24.9487 2.9556 24.9472 2.84927 24.9448C2.66957 24.9399 2.43615 24.9295 2.22497 24.8918C2.0438 24.8592 1.89191 24.8096 1.74508 24.7346C1.60059 24.6614 1.46905 24.5658 1.35303 24.4496C1.2379 24.3346 1.14223 24.2029 1.06826 24.0573C0.994211 23.9118 0.94467 23.7599 0.912097 23.5775C0.874444 23.3691 0.8641 23.1456 0.858931 22.9546C0.855981 22.8453 0.854748 22.7359 0.854047 22.6272L0.853516 22.3063L0.85354 22.2216V3.77857L0.853516 3.69384L0.854023 3.37362C0.854748 3.26427 0.855981 3.15494 0.858931 3.04568C0.8641 2.8545 0.874443 2.63092 0.912408 2.42072C0.944694 2.23998 0.994211 2.08808 1.06864 1.9419C1.14203 1.79741 1.23788 1.66551 1.35361 1.5498C1.46888 1.43448 1.60085 1.33861 1.74626 1.26466C1.89152 1.19069 2.0437 1.14103 2.22487 1.10843C2.43362 1.07092 2.65766 1.06058 2.84954 1.05539C2.95892 1.05241 3.06829 1.05123 3.17685 1.05048L3.58213 1.04968H36.4178Z" fill="white"/>
<path d="M10.9194 8.80913C11.2619 8.38074 11.4943 7.80555 11.433 7.21777C10.9317 7.2427 10.3199 7.54854 9.96565 7.97726C9.6476 8.34439 9.36611 8.94366 9.43949 9.5068C10.0023 9.55562 10.5646 9.22549 10.9194 8.80913Z" fill="black"/>
<path d="M11.4271 9.61679C10.6097 9.5681 9.91482 10.0807 9.5245 10.0807C9.13397 10.0807 8.53627 9.64132 7.88981 9.65316C7.04841 9.66552 6.26768 10.1413 5.8407 10.8979C4.96248 12.4116 5.60894 14.6569 6.46296 15.8897C6.87769 16.4996 7.37752 17.1711 8.03612 17.147C8.65838 17.1226 8.90228 16.7441 9.65867 16.7441C10.4145 16.7441 10.6342 17.147 11.2929 17.1348C11.976 17.1226 12.4031 16.5246 12.8178 15.9141C13.2936 15.2188 13.4883 14.5475 13.5006 14.5106C13.4883 14.4984 12.1834 13.9978 12.1713 12.4967C12.159 11.2399 13.1958 10.642 13.2446 10.6049C12.6591 9.73896 11.7442 9.64132 11.4271 9.61679Z" fill="black"/>
<path d="M18.5438 7.91577C20.3202 7.91577 21.5572 9.14029 21.5572 10.9231C21.5572 12.7123 20.2948 13.9431 18.4992 13.9431H16.5324V17.071H15.1113V7.91577H18.5438V7.91577ZM16.5324 12.7503H18.1629C19.4002 12.7503 20.1044 12.0842 20.1044 10.9295C20.1044 9.77482 19.4002 9.11496 18.1693 9.11496H16.5324V12.7503Z" fill="black"/>
<path d="M21.9277 15.1741C21.9277 14.0066 22.8223 13.2897 24.4086 13.2008L26.2357 13.093V12.5792C26.2357 11.8368 25.7344 11.3927 24.8971 11.3927C24.1039 11.3927 23.609 11.7733 23.4885 12.3698H22.1943C22.2704 11.1642 23.2981 10.276 24.9478 10.276C26.5656 10.276 27.5997 11.1325 27.5997 12.4712V17.071H26.2864V15.9734H26.2548C25.8678 16.7158 25.0239 17.1852 24.1484 17.1852C22.8414 17.1852 21.9277 16.3731 21.9277 15.1741ZM26.2357 14.5714V14.0448L24.5924 14.1462C23.7739 14.2034 23.3109 14.565 23.3109 15.136C23.3109 15.7196 23.793 16.1003 24.529 16.1003C25.487 16.1003 26.2357 15.4405 26.2357 14.5714Z" fill="black"/>
<path d="M28.8396 19.5264V18.416C28.9409 18.4414 29.1692 18.4414 29.2835 18.4414C29.9179 18.4414 30.2606 18.175 30.4699 17.4898C30.4699 17.477 30.5905 17.0837 30.5905 17.0774L28.1797 10.3965H29.6641L31.352 15.8275H31.3772L33.065 10.3965H34.5115L32.0116 17.4199C31.4408 19.0379 30.781 19.5581 29.3978 19.5581C29.2835 19.5581 28.9409 19.5454 28.8396 19.5264Z" fill="black"/>
</g>
<defs>
<clipPath id="clip0_4431_3981">
<rect width="40" height="25.6076" fill="white" transform="translate(0 0.196167)"/>
</clipPath>
</defs>
</svg>
