<svg width="51" height="20" viewBox="0 0 51 20" fill="none" xmlns="http://www.w3.org/2000/svg">
<path d="M23.803 9.7271V15.6238H21.9316V1.06238H26.8927C28.15 1.06238 29.2221 1.48148 30.0993 2.31969C30.996 3.1579 31.4443 4.18129 31.4443 5.38987C31.4443 6.62768 30.996 7.65107 30.0993 8.47953C29.2318 9.30799 28.1597 9.71735 26.8927 9.71735H23.803V9.7271ZM23.803 2.85575V7.93372H26.9316C27.6724 7.93372 28.2962 7.68031 28.7835 7.18324C29.2806 6.68616 29.534 6.08187 29.534 5.39961C29.534 4.7271 29.2806 4.13256 28.7835 3.63548C28.2962 3.11891 27.6821 2.8655 26.9316 2.8655H23.803V2.85575Z" fill="white"/>
<path d="M36.3372 5.3313C37.7212 5.3313 38.8128 5.70167 39.6121 6.44241C40.4113 7.18315 40.8109 8.1968 40.8109 9.48335V15.6237H39.0273V14.2397H38.9493C38.1793 15.38 37.1462 15.9453 35.8596 15.9453C34.7583 15.9453 33.8421 15.6237 33.1013 14.9707C32.3606 14.3177 31.9902 13.5087 31.9902 12.534C31.9902 11.5009 32.3801 10.6822 33.1598 10.0779C33.9396 9.46385 34.9824 9.16171 36.2787 9.16171C37.3898 9.16171 38.306 9.36639 39.0175 9.77574V9.34689C39.0175 8.69387 38.7641 8.14806 38.2475 7.68997C37.731 7.23188 37.1267 7.00771 36.4347 7.00771C35.3918 7.00771 34.5633 7.44631 33.959 8.33325L32.3119 7.30011C33.2183 5.98432 34.5633 5.3313 36.3372 5.3313ZM33.9201 12.5633C33.9201 13.0506 34.1247 13.46 34.5438 13.7816C34.9532 14.1032 35.4405 14.2689 35.9961 14.2689C36.7856 14.2689 37.4873 13.9765 38.1013 13.3917C38.7154 12.8069 39.0273 12.1247 39.0273 11.3352C38.4425 10.8771 37.6335 10.6432 36.5906 10.6432C35.8304 10.6432 35.1969 10.8284 34.69 11.189C34.1735 11.5691 33.9201 12.0272 33.9201 12.5633Z" fill="white"/>
<path d="M50.9864 5.65295L44.7486 19.9999H42.8188L45.1385 14.9804L41.0254 5.65295H43.0624L46.0254 12.8069H46.0644L48.9494 5.65295H50.9864Z" fill="white"/>
<path d="M16.3594 8.53808C16.3594 7.92794 16.3048 7.34412 16.2034 6.78271H8.35938V9.99909L12.8769 10.0001C12.6937 11.0702 12.104 11.9825 11.2005 12.5907V14.6775H13.8896C15.4598 13.2242 16.3594 11.0761 16.3594 8.53808Z" fill="#4285F4"/>
<path d="M11.2025 12.5907C10.454 13.0955 9.49006 13.3909 8.36238 13.3909C6.18402 13.3909 4.33606 11.923 3.67427 9.94446H0.900391V12.0965C2.27466 14.8236 5.09922 16.6949 8.36238 16.6949C10.6177 16.6949 12.5125 15.9532 13.8916 14.6764L11.2025 12.5907Z" fill="#34A853"/>
<path d="M3.4123 8.34802C3.4123 7.79247 3.50489 7.25543 3.67351 6.75056V4.59851H0.899631C0.331405 5.72619 0.0117188 6.9991 0.0117188 8.34802C0.0117188 9.69695 0.33238 10.9699 0.899631 12.0975L3.67351 9.94549C3.50489 9.44062 3.4123 8.90358 3.4123 8.34802Z" fill="#FABB05"/>
<path d="M8.36238 3.30409C9.59337 3.30409 10.6957 3.72807 11.5661 4.55653L13.9491 2.17544C12.5018 0.827486 10.6148 0 8.36238 0C5.10019 0 2.27466 1.87134 0.900391 4.59844L3.67427 6.75049C4.33606 4.77193 6.18402 3.30409 8.36238 3.30409Z" fill="#E94235"/>
</svg>
