<svg width="343" height="111" viewBox="0 0 343 111" fill="none" xmlns="http://www.w3.org/2000/svg">
<g clip-path="url(#clip0_4301_87391)">
<mask id="path-1-outside-1_4301_87391" maskUnits="userSpaceOnUse" x="122" y="5" width="100" height="192" fill="black">
<rect fill="white" x="122" y="5" width="100" height="192"/>
<path fill-rule="evenodd" clip-rule="evenodd" d="M141.455 7C131.815 7 124 14.8147 124 24.4545V177.545C124 187.185 131.815 195 141.455 195H202.545C212.185 195 220 187.185 220 177.545V24.4545C220 14.8147 212.185 7 202.545 7H141.455Z"/>
</mask>
<path fill-rule="evenodd" clip-rule="evenodd" d="M141.455 7C131.815 7 124 14.8147 124 24.4545V177.545C124 187.185 131.815 195 141.455 195H202.545C212.185 195 220 187.185 220 177.545V24.4545C220 14.8147 212.185 7 202.545 7H141.455Z" fill="#1A2533" fill-opacity="0.75"/>
<path d="M125.5 24.4545C125.5 15.6431 132.643 8.5 141.455 8.5V5.5C130.986 5.5 122.5 13.9862 122.5 24.4545H125.5ZM125.5 177.545V24.4545H122.5V177.545H125.5ZM141.455 193.5C132.643 193.5 125.5 186.357 125.5 177.545H122.5C122.5 188.014 130.986 196.5 141.455 196.5V193.5ZM202.545 193.5H141.455V196.5H202.545V193.5ZM218.5 177.545C218.5 186.357 211.357 193.5 202.545 193.5V196.5C213.014 196.5 221.5 188.014 221.5 177.545H218.5ZM218.5 24.4545V177.545H221.5V24.4545H218.5ZM202.545 8.5C211.357 8.5 218.5 15.6431 218.5 24.4545H221.5C221.5 13.9862 213.014 5.5 202.545 5.5V8.5ZM141.455 8.5H202.545V5.5H141.455V8.5Z" fill="black" mask="url(#path-1-outside-1_4301_87391)"/>
<rect x="130" y="13" width="84" height="175" rx="12" fill="white" stroke="black" stroke-width="1.5"/>
<rect x="164.25" y="17.25" width="13.5" height="4.5" rx="2.25" fill="#1A2533" fill-opacity="0.5" stroke="black" stroke-width="1.5"/>
<g filter="url(#filter0_d_4301_87391)">
<rect x="135" y="27.0001" width="74" height="24" rx="6.16665" fill="white"/>
<rect x="135" y="27.0001" width="74" height="24" rx="6.16665" fill="#1A2533" fill-opacity="0.25"/>
<rect x="134.25" y="26.2501" width="75.5" height="25.5" rx="6.91665" stroke="#1A2533" stroke-width="1.5"/>
</g>
<rect x="138" y="30.0001" width="18" height="17.9999" rx="3.08333" fill="#1BB38F" stroke="#1A2533" stroke-width="1.5"/>
<mask id="path-8-inside-2_4301_87391" fill="white">
<path fill-rule="evenodd" clip-rule="evenodd" d="M146.982 43.2765C150.572 43.2765 153.482 40.999 153.482 38.1895C153.482 35.3801 150.572 33.1026 146.982 33.1026C143.393 33.1026 140.482 35.3801 140.482 38.1895C140.482 39.8964 141.557 41.4069 143.205 42.3297C142.761 44.1484 141.75 46.0001 140 46.0001C143.78 46.0001 145.877 44.7663 146.965 43.2765C146.971 43.2765 146.977 43.2765 146.982 43.2765Z"/>
</mask>
<path fill-rule="evenodd" clip-rule="evenodd" d="M146.982 43.2765C150.572 43.2765 153.482 40.999 153.482 38.1895C153.482 35.3801 150.572 33.1026 146.982 33.1026C143.393 33.1026 140.482 35.3801 140.482 38.1895C140.482 39.8964 141.557 41.4069 143.205 42.3297C142.761 44.1484 141.75 46.0001 140 46.0001C143.78 46.0001 145.877 44.7663 146.965 43.2765C146.971 43.2765 146.977 43.2765 146.982 43.2765Z" fill="white"/>
<path d="M143.205 42.3297L144.662 42.6855C144.822 42.0309 144.526 41.35 143.938 41.0208L143.205 42.3297ZM140 44.5001C139.172 44.5001 138.5 45.1716 138.5 46.0001C138.5 46.8285 139.172 47.5001 140 47.5001V44.5001ZM146.965 43.2765L146.968 41.7765C146.489 41.7755 146.037 42.0041 145.754 42.3915L146.965 43.2765ZM151.982 38.1895C151.982 39.8489 150.107 41.7765 146.982 41.7765V44.7765C151.037 44.7765 154.982 42.149 154.982 38.1895H151.982ZM146.982 34.6026C150.107 34.6026 151.982 36.5301 151.982 38.1895H154.982C154.982 34.2301 151.037 31.6026 146.982 31.6026V34.6026ZM141.982 38.1895C141.982 36.5301 143.858 34.6026 146.982 34.6026V31.6026C142.927 31.6026 138.982 34.2301 138.982 38.1895H141.982ZM143.938 41.0208C142.633 40.2902 141.982 39.2186 141.982 38.1895H138.982C138.982 40.5742 140.481 42.5236 142.472 43.6385L143.938 41.0208ZM140 47.5001C141.482 47.5001 142.57 46.6926 143.285 45.757C143.982 44.8437 144.412 43.7093 144.662 42.6855L141.748 41.9738C141.553 42.7687 141.257 43.4695 140.9 43.9368C140.56 44.3816 140.269 44.5001 140 44.5001V47.5001ZM145.754 42.3915C145.021 43.3955 143.439 44.5001 140 44.5001V47.5001C144.121 47.5001 146.733 46.137 148.176 44.1614L145.754 42.3915ZM146.982 41.7765C146.978 41.7765 146.973 41.7765 146.968 41.7765L146.962 44.7765C146.969 44.7765 146.976 44.7765 146.982 44.7765V41.7765Z" fill="#1A2533" mask="url(#path-8-inside-2_4301_87391)"/>
<rect x="163.25" y="32.2501" width="12.5" height="4.5" fill="white" stroke="#1A2533" stroke-width="1.5"/>
<rect x="163.25" y="41.2501" width="36.5" height="4.5" fill="white" stroke="#1A2533" stroke-width="1.5"/>
<path fill-rule="evenodd" clip-rule="evenodd" d="M246.313 38.7085C246.313 39.813 245.418 40.7085 244.313 40.7085H230.878C229.774 40.7085 228.878 39.813 228.878 38.7085C228.878 37.6039 229.774 36.7085 230.878 36.7085H244.313C245.418 36.7085 246.313 37.6039 246.313 38.7085Z" fill="#1BB38F" stroke="#1A2533" stroke-width="1.5" stroke-linecap="round"/>
<path fill-rule="evenodd" clip-rule="evenodd" d="M238.103 22.2751C238.884 23.0562 238.884 24.3225 238.103 25.1035L230.725 32.4822C229.944 33.2633 228.677 33.2633 227.896 32.4822C227.115 31.7012 227.115 30.4348 227.896 29.6538L235.275 22.2751C236.056 21.4941 237.322 21.4941 238.103 22.2751Z" fill="#1BB38F" stroke="#1A2533" stroke-width="1.5" stroke-linecap="round"/>
<path fill-rule="evenodd" clip-rule="evenodd" d="M238.103 55.4054C238.884 54.6244 238.884 53.358 238.103 52.577L230.725 45.1983C229.944 44.4173 228.677 44.4173 227.896 45.1983C227.115 45.9794 227.115 47.2457 227.896 48.0267L235.275 55.4054C236.056 56.1865 237.322 56.1865 238.103 55.4054Z" fill="#1BB38F" stroke="#1A2533" stroke-width="1.5" stroke-linecap="round"/>
</g>
<defs>
<filter id="filter0_d_4301_87391" x="127.333" y="22.4167" width="89.3333" height="39.3333" filterUnits="userSpaceOnUse" color-interpolation-filters="sRGB">
<feFlood flood-opacity="0" result="BackgroundImageFix"/>
<feColorMatrix in="SourceAlpha" type="matrix" values="0 0 0 0 0 0 0 0 0 0 0 0 0 0 0 0 0 0 127 0" result="hardAlpha"/>
<feOffset dy="3.08333"/>
<feGaussianBlur stdDeviation="3.08333"/>
<feComposite in2="hardAlpha" operator="out"/>
<feColorMatrix type="matrix" values="0 0 0 0 0.101961 0 0 0 0 0.145098 0 0 0 0 0.2 0 0 0 0.1 0"/>
<feBlend mode="normal" in2="BackgroundImageFix" result="effect1_dropShadow_4301_87391"/>
<feBlend mode="normal" in="SourceGraphic" in2="effect1_dropShadow_4301_87391" result="shape"/>
</filter>
<clipPath id="clip0_4301_87391">
<rect width="343" height="111" fill="white"/>
</clipPath>
</defs>
</svg>
