<svg width="69" height="24" viewBox="0 0 69 24" fill="none" xmlns="http://www.w3.org/2000/svg">
<circle cx="4.5" cy="12" r="4" fill="#E62E2E"/>
<circle cx="20.5" cy="12" r="4" fill="#E62E2E"/>
<g clip-path="url(#clip0_7956_13041)">
<path d="M39.1673 20.3334L40.834 20.3334L45.0007 13.25L49.584 13.25C50.2757 13.25 50.834 12.6917 50.834 12C50.834 11.3084 50.2757 10.75 49.584 10.75L45.0007 10.75L40.834 3.66669L39.1673 3.66669L41.2507 10.75L36.6673 10.75L35.4173 8.66669L34.1673 8.66669L35.0007 12L34.1673 15.3334L35.4173 15.3334L36.6673 13.25L41.2506 13.25L39.1673 20.3334Z" fill="#E62E2E"/>
</g>
<circle cx="64.5" cy="12" r="4" fill="#1A2533" fill-opacity="0.1"/>
<defs>
<clipPath id="clip0_7956_13041">
<rect width="20" height="20" fill="white" transform="translate(52.5 2) rotate(90)"/>
</clipPath>
</defs>
</svg>
